<svg viewBox="0 0 400 400" xmlns="http://www.w3.org/2000/svg">
<defs>
<clipPath id="cubeShape"><polygon points="200.0,20.0 355.9,110.0 355.9,290.0 200.0,380.0 44.1,290.0 44.1,110.0"/></clipPath>
<clipPath id="cubeShapeInset"><polygon points="200.0,22.2 354.0,111.1 354.0,288.9 200.0,377.8 46.0,288.9 46.0,111.1"/></clipPath>
<clipPath id="cubeBody"><polygon points="200.0,21.2 354.9,110.6 354.9,289.4 200.0,378.8 45.1,289.4 45.1,110.6"/></clipPath>
</defs>
<g clip-path="url(#cubeBody)">
<polygon points="200.0,20.0 252.0,50.0 200.0,80.0 148.0,50.0" fill="#1A2332" stroke="#FFFFFF" stroke-width="4" stroke-linejoin="round"/>
<polygon points="148.0,50.0 200.0,80.0 148.0,110.0 96.1,80.0" fill="#1A2332" stroke="#FFFFFF" stroke-width="4" stroke-linejoin="round"/>
<polygon points="96.1,80.0 148.0,110.0 96.1,140.0 44.1,110.0" fill="#1A2332" stroke="#FFFFFF" stroke-width="4" stroke-linejoin="round"/>
<polygon points="252.0,50.0 303.9,80.0 252.0,110.0 200.0,80.0" fill="#1A2332" stroke="#FFFFFF" stroke-width="4" stroke-linejoin="round"/>
<polygon points="200.0,80.0 252.0,110.0 200.0,140.0 148.0,110.0" fill="#1A2332" stroke="#FFFFFF" stroke-width="4" stroke-linejoin="round"/>
<polygon points="148.0,110.0 200.0,140.0 148.0,170.0 96.1,140.0" fill="#1A2332" stroke="#FFFFFF" stroke-width="4" stroke-linejoin="round"/>
<polygon points="303.9,80.0 355.9,110.0 303.9,140.0 252.0,110.0" fill="#1A2332" stroke="#FFFFFF" stroke-width="4" stroke-linejoin="round"/>
<polygon points="252.0,110.0 303.9,140.0 252.0,170.0 200.0,140.0" fill="#1A2332" stroke="#FFFFFF" stroke-width="4" stroke-linejoin="round"/>
<polygon points="200.0,140.0 252.0,170.0 200.0,200.0 148.0,170.0" fill="#1A2332" stroke="#FFFFFF" stroke-width="4" stroke-linejoin="round"/>
<polygon points="355.9,290.0 303.9,320.0 303.9,260.0 355.9,230.0" fill="#1A2332" stroke="#FFFFFF" stroke-width="4" stroke-linejoin="round"/>
<polygon points="355.9,230.0 303.9,260.0 303.9,200.0 355.9,170.0" fill="#1A2332" stroke="#FFFFFF" stroke-width="4" stroke-linejoin="round"/>
<polygon points="355.9,170.0 303.9,200.0 303.9,140.0 355.9,110.0" fill="#1A2332" stroke="#FFFFFF" stroke-width="4" stroke-linejoin="round"/>
<polygon points="303.9,320.0 252.0,350.0 252.0,290.0 303.9,260.0" fill="#1A2332" stroke="#FFFFFF" stroke-width="4" stroke-linejoin="round"/>
<polygon points="303.9,260.0 252.0,290.0 252.0,230.0 303.9,200.0" fill="#1A2332" stroke="#FFFFFF" stroke-width="4" stroke-linejoin="round"/>
<polygon points="303.9,200.0 252.0,230.0 252.0,170.0 303.9,140.0" fill="#1A2332" stroke="#FFFFFF" stroke-width="4" stroke-linejoin="round"/>
<polygon points="252.0,350.0 200.0,380.0 200.0,320.0 252.0,290.0" fill="#1A2332" stroke="#FFFFFF" stroke-width="4" stroke-linejoin="round"/>
<polygon points="252.0,290.0 200.0,320.0 200.0,260.0 252.0,230.0" fill="#1A2332" stroke="#FFFFFF" stroke-width="4" stroke-linejoin="round"/>
<polygon points="252.0,230.0 200.0,260.0 200.0,200.0 252.0,170.0" fill="#1A2332" stroke="#FFFFFF" stroke-width="4" stroke-linejoin="round"/>
<polygon points="44.1,290.0 96.1,320.0 96.1,260.0 44.1,230.0" fill="#1A2332" stroke="#FFFFFF" stroke-width="4" stroke-linejoin="round"/>
<polygon points="44.1,230.0 96.1,260.0 96.1,200.0 44.1,170.0" fill="#1A2332" stroke="#FFFFFF" stroke-width="4" stroke-linejoin="round"/>
<polygon points="44.1,170.0 96.1,200.0 96.1,140.0 44.1,110.0" fill="#1A2332" stroke="#FFFFFF" stroke-width="4" stroke-linejoin="round"/>
<polygon points="96.1,320.0 148.0,350.0 148.0,290.0 96.1,260.0" fill="#1A2332" stroke="#FFFFFF" stroke-width="4" stroke-linejoin="round"/>
<polygon points="96.1,260.0 148.0,290.0 148.0,230.0 96.1,200.0" fill="#1A2332" stroke="#FFFFFF" stroke-width="4" stroke-linejoin="round"/>
<polygon points="96.1,200.0 148.0,230.0 148.0,170.0 96.1,140.0" fill="#1A2332" stroke="#FFFFFF" stroke-width="4" stroke-linejoin="round"/>
<polygon points="148.0,350.0 200.0,380.0 200.0,320.0 148.0,290.0" fill="#1A2332" stroke="#FFFFFF" stroke-width="4" stroke-linejoin="round"/>
<polygon points="148.0,290.0 200.0,320.0 200.0,260.0 148.0,230.0" fill="#1A2332" stroke="#FFFFFF" stroke-width="4" stroke-linejoin="round"/>
<polygon points="148.0,230.0 200.0,260.0 200.0,200.0 148.0,170.0" fill="#1A2332" stroke="#FFFFFF" stroke-width="4" stroke-linejoin="round"/>
<polygon points="200.0,21.2 354.9,110.6 354.9,289.4 200.0,378.8 45.1,289.4 45.1,110.6" fill="none" stroke="#1A2332" stroke-width="5" stroke-linejoin="round"/>
</g>
<g clip-path="url(#cubeBody)">
<path d="M 200.00 21.00 L 195.32 23.70 A 5.40 5.40 0 0 0 204.68 23.70 Z" fill="#F4842F"/>
<path d="M 44.98 110.50 L 44.98 115.90 A 5.40 5.40 0 0 0 49.66 107.80 Z" fill="#F4842F"/>
<ellipse cx="200.0" cy="80.0" rx="7.11" ry="4.10" fill="#F4842F" transform="rotate(0 200.0 80.0)"/>
<ellipse cx="148.0" cy="110.0" rx="7.11" ry="4.10" fill="#F4842F" transform="rotate(0 148.0 110.0)"/>
<ellipse cx="97.8" cy="141.0" rx="6.16" ry="4.74" fill="#F4842F" transform="rotate(120 97.8 141.0)"/>
<ellipse cx="252.0" cy="110.0" rx="7.11" ry="4.10" fill="#F4842F" transform="rotate(0 252.0 110.0)"/>
<ellipse cx="200.0" cy="140.0" rx="7.11" ry="4.10" fill="#F4842F" transform="rotate(0 200.0 140.0)"/>
<ellipse cx="149.8" cy="171.0" rx="6.16" ry="4.74" fill="#F4842F" transform="rotate(120 149.8 171.0)"/>
<path d="M 355.02 110.50 L 350.34 107.80 A 5.40 5.40 0 0 0 355.02 115.90 Z" fill="#F4842F"/>
<ellipse cx="302.2" cy="141.0" rx="6.16" ry="4.74" fill="#F4842F" transform="rotate(240 302.2 141.0)"/>
<ellipse cx="250.2" cy="171.0" rx="6.16" ry="4.74" fill="#F4842F" transform="rotate(240 250.2 171.0)"/>
<circle cx="200.0" cy="200.0" r="5.4" fill="#F4842F"/>
<path d="M 355.02 289.50 L 355.02 284.10 A 5.40 5.40 0 0 0 350.34 292.20 Z" fill="#F4842F"/>
<ellipse cx="303.9" cy="260.0" rx="7.11" ry="4.10" fill="#F4842F" transform="rotate(120 303.9 260.0)"/>
<ellipse cx="303.9" cy="200.0" rx="7.11" ry="4.10" fill="#F4842F" transform="rotate(120 303.9 200.0)"/>
<ellipse cx="252.0" cy="290.0" rx="7.11" ry="4.10" fill="#F4842F" transform="rotate(120 252.0 290.0)"/>
<ellipse cx="252.0" cy="230.0" rx="7.11" ry="4.10" fill="#F4842F" transform="rotate(120 252.0 230.0)"/>
<path d="M 200.00 379.00 L 204.68 376.30 A 5.40 5.40 0 0 0 195.32 376.30 Z" fill="#F4842F"/>
<ellipse cx="200.0" cy="318.0" rx="6.16" ry="4.74" fill="#F4842F" transform="rotate(180 200.0 318.0)"/>
<ellipse cx="200.0" cy="258.0" rx="6.16" ry="4.74" fill="#F4842F" transform="rotate(180 200.0 258.0)"/>
<path d="M 44.98 289.50 L 49.66 292.20 A 5.40 5.40 0 0 0 44.98 284.10 Z" fill="#F4842F"/>
<ellipse cx="96.1" cy="260.0" rx="7.11" ry="4.10" fill="#F4842F" transform="rotate(60 96.1 260.0)"/>
<ellipse cx="96.1" cy="200.0" rx="7.11" ry="4.10" fill="#F4842F" transform="rotate(60 96.1 200.0)"/>
<ellipse cx="148.0" cy="290.0" rx="7.11" ry="4.10" fill="#F4842F" transform="rotate(60 148.0 290.0)"/>
<ellipse cx="148.0" cy="230.0" rx="7.11" ry="4.10" fill="#F4842F" transform="rotate(60 148.0 230.0)"/>
</g>
<g clip-path="url(#cubeBody)">
<ellipse cx="148.0" cy="50.0" rx="7.11" ry="4.10" fill="#F4842F" transform="rotate(0 148.0 50.0)"/>
<ellipse cx="96.1" cy="80.0" rx="7.11" ry="4.10" fill="#F4842F" transform="rotate(0 96.1 80.0)"/>
<ellipse cx="252.0" cy="50.0" rx="7.11" ry="4.10" fill="#F4842F" transform="rotate(0 252.0 50.0)"/>
<ellipse cx="303.9" cy="80.0" rx="7.11" ry="4.10" fill="#F4842F" transform="rotate(0 303.9 80.0)"/>
<ellipse cx="355.9" cy="230.0" rx="7.11" ry="4.10" fill="#F4842F" transform="rotate(120 355.9 230.0)"/>
<ellipse cx="355.9" cy="170.0" rx="7.11" ry="4.10" fill="#F4842F" transform="rotate(120 355.9 170.0)"/>
<ellipse cx="303.9" cy="320.0" rx="7.11" ry="4.10" fill="#F4842F" transform="rotate(120 303.9 320.0)"/>
<ellipse cx="252.0" cy="350.0" rx="7.11" ry="4.10" fill="#F4842F" transform="rotate(120 252.0 350.0)"/>
<ellipse cx="44.1" cy="230.0" rx="7.11" ry="4.10" fill="#F4842F" transform="rotate(60 44.1 230.0)"/>
<ellipse cx="44.1" cy="170.0" rx="7.11" ry="4.10" fill="#F4842F" transform="rotate(60 44.1 170.0)"/>
<ellipse cx="96.1" cy="320.0" rx="7.11" ry="4.10" fill="#F4842F" transform="rotate(60 96.1 320.0)"/>
<ellipse cx="148.0" cy="350.0" rx="7.11" ry="4.10" fill="#F4842F" transform="rotate(60 148.0 350.0)"/>
</g>
</svg>